<svg width="24" height="24" viewBox="0 0 24 24" fill="none" xmlns="http://www.w3.org/2000/svg">
<path d="M11 19.3C11.9167 19.3 12.8 19.0875 13.65 18.6625C14.5 18.2375 15.2583 17.65 15.925 16.9C13.725 16.7167 11.8708 15.8708 10.3625 14.3625C8.85417 12.8542 8.1 11.0417 8.1 8.925C8.1 8.74166 8.1125 8.52083 8.1375 8.2625C8.1625 8.00416 8.21667 7.69166 8.3 7.325C7.23333 7.95833 6.36667 8.77083 5.7 9.7625C5.03333 10.7542 4.7 11.8333 4.7 13C4.7 14.7333 5.31667 16.2167 6.55 17.45C7.78333 18.6833 9.26667 19.3 11 19.3ZM11 21C8.78333 21 6.89583 20.2208 5.3375 18.6625C3.77917 17.1042 3 15.2167 3 13C3 10.7833 3.77917 8.89583 5.3375 7.3375C6.89583 5.77916 8.78333 5 11 5C11.0167 5 11.0458 5.00416 11.0875 5.0125C11.1292 5.02083 11.1583 5.025 11.175 5.025C10.7583 5.525 10.4292 6.1125 10.1875 6.7875C9.94583 7.4625 9.825 8.175 9.825 8.925C9.825 10.6583 10.4375 12.1375 11.6625 13.3625C12.8875 14.5875 14.3667 15.2 16.1 15.2C16.6 15.2 17.075 15.1542 17.525 15.0625C17.975 14.9708 18.4083 14.825 18.825 14.625C18.4083 16.4417 17.4833 17.9583 16.05 19.175C14.6167 20.3917 12.9333 21 11 21ZM13.875 10.95L17.05 1.95H19.1L22.275 10.95H20.375L19.675 8.95H16.475L15.775 10.95H13.875ZM16.925 7.6H19.225L18.075 3.95L16.925 7.6Z" fill="#EEF0F2"/>
</svg>
