<svg width="24" height="25" viewBox="0 0 24 25" fill="none" xmlns="http://www.w3.org/2000/svg">
<g clip-path="url(#clip0_3_349)">
<path d="M17.94 18.44C16.2306 19.743 14.1491 20.4649 12 20.5C5 20.5 1 12.5 1 12.5C2.24389 10.1819 3.96914 8.1566 6.06 6.55999M9.9 4.73999C10.5883 4.57887 11.2931 4.49833 12 4.49999C19 4.49999 23 12.5 23 12.5C22.393 13.6356 21.6691 14.7047 20.84 15.69M14.12 14.62C13.8454 14.9147 13.5141 15.1511 13.1462 15.3151C12.7782 15.4791 12.3809 15.5673 11.9781 15.5744C11.5753 15.5815 11.1752 15.5074 10.8016 15.3565C10.4281 15.2056 10.0887 14.981 9.80385 14.6961C9.51897 14.4113 9.29439 14.0719 9.14351 13.6984C8.99262 13.3248 8.91853 12.9247 8.92563 12.5219C8.93274 12.1191 9.02091 11.7218 9.18488 11.3538C9.34884 10.9858 9.58525 10.6546 9.88 10.38" stroke="#59697D" stroke-width="2" stroke-linecap="round" stroke-linejoin="round"/>
<path d="M1 1.5L23 23.5" stroke="#59697D" stroke-width="2" stroke-linecap="round" stroke-linejoin="round"/>
</g>
<defs>
<clipPath id="clip0_3_349">
<rect width="24" height="24" fill="white" transform="translate(0 0.5)"/>
</clipPath>
</defs>
</svg>